/* XPM */
static char *s44CACHHW57_png[] = {
/* columns rows colors chars-per-pixel */
"40 40 175 2 ",
"   c None",
".  c #D6971C",
"X  c #DC9C1D",
"o  c #E29E16",
"O  c #E6A41E",
"+  c #E8A51B",
"@  c #FDB31F",
"#  c #D79A23",
"$  c #D69924",
"%  c #D79924",
"&  c #D79A25",
"*  c #D89A24",
"=  c #D99A25",
"-  c #D89B25",
";  c #D99B25",
":  c #D99B26",
">  c #D89C25",
",  c #DA9C25",
"<  c #DA9D25",
"1  c #DA9C26",
"2  c #DA9D26",
"3  c #DB9D26",
"4  c #DA9D27",
"5  c #DB9E26",
"6  c #DC9E27",
"7  c #DC9F27",
"8  c #DD9F27",
"9  c #DE9F27",
"0  c #DA9E28",
"q  c #DE9F28",
"w  c #E0A229",
"e  c #E2A329",
"r  c #E3A42A",
"t  c #E4A52A",
"y  c #E6A72B",
"u  c #E7A72C",
"i  c #E8A82B",
"p  c #E8A92B",
"a  c #E9A92C",
"s  c #EBAA2D",
"d  c #EBAB2D",
"f  c #F2AF2C",
"g  c #F0AF2F",
"h  c #FDB320",
"j  c #FDB421",
"k  c #FDB521",
"l  c #FDB524",
"z  c #FDB425",
"x  c #FDB624",
"c  c #FEB625",
"v  c #FDB626",
"b  c #FEB727",
"n  c #FEB826",
"m  c #FFB826",
"M  c #FFB927",
"N  c #F1B02F",
"B  c #FDB529",
"V  c #FDB629",
"C  c #FEB728",
"Z  c #FEB629",
"A  c #FDB72D",
"S  c #FDB62F",
"D  c #FEB829",
"F  c #FEB82A",
"G  c #FEB92D",
"H  c #FDB82E",
"J  c #FEBA2F",
"K  c #FFBB2F",
"L  c #F0AF30",
"P  c #F0AF31",
"I  c #F2B130",
"U  c #F4B331",
"Y  c #F5B431",
"T  c #F4B432",
"R  c #F5B432",
"E  c #F6B432",
"W  c #F6B533",
"Q  c #F8B633",
"!  c #FEBA30",
"~  c #FEBA32",
"^  c #FFBB33",
"/  c #FFBC32",
"(  c #FFBC33",
")  c #FAB834",
"_  c #FCB935",
"`  c #FCBA35",
"'  c #FDBA35",
"]  c #FDB936",
"[  c #FFBD34",
"{  c #FFBD35",
"}  c #FFBC36",
"|  c #FFBD36",
" . c #FFBC37",
".. c #FFBE37",
"X. c #FDBA38",
"o. c #FEBA38",
"O. c #FFBC38",
"+. c #FFBD38",
"@. c #FFBE38",
"#. c #FFBE39",
"$. c #FFBE3A",
"%. c #F9B83C",
"&. c #FEBB3C",
"*. c #FFBC3F",
"=. c #FEC039",
"-. c #FFC339",
";. c #FFC43A",
":. c #FFC53B",
">. c #FFC73D",
",. c #FDB840",
"<. c #FFBE44",
"1. c #FEBD47",
"2. c #FCBE4A",
"3. c #FEC049",
"4. c #FEC04F",
"5. c #FFC554",
"6. c #FFC657",
"7. c #FFC757",
"8. c #FBC25A",
"9. c #FFC85D",
"0. c #FFCA5F",
"q. c #FFC760",
"w. c #FEC667",
"e. c #FFC962",
"r. c #FFC966",
"t. c #FFCA66",
"y. c #FFCA68",
"u. c #FFCE6A",
"i. c #FFCE6E",
"p. c #FFCE70",
"a. c #FFD176",
"s. c #FFD177",
"d. c #FFD278",
"f. c #FFD37B",
"g. c #FFD582",
"h. c #FFD389",
"j. c #FFD788",
"k. c #FFD88B",
"l. c #FFDB8B",
"z. c #FFDA91",
"x. c #FFDA97",
"c. c #FFDD9F",
"v. c #FFDF9F",
"b. c #FFE09D",
"n. c #FFD9A4",
"m. c #FFDFA8",
"M. c #FED9AD",
"N. c #FFDAAC",
"B. c #E2DDBF",
"V. c #F7DDB1",
"C. c #FFDEB7",
"Z. c #F6DEBC",
"A. c #F7DFBC",
"S. c #FEDEBA",
"D. c #FEDEBC",
"F. c #FFE1A3",
"G. c #FFE1A4",
"H. c #FFE3A5",
"J. c #FFE0A6",
"K. c #FFE0A7",
"L. c #FFE3AA",
"P. c #FFE1AF",
"I. c #FFE2AE",
"U. c #FFE6AF",
"Y. c #FFE2B7",
"T. c #FFE5B5",
"R. c #FCE1B8",
"E. c #D0D2C9",
"W. c #DCD5CD",
"Q. c #EDDBC3",
"!. c #E4D6CA",
"~. c #F3DEC0",
"^. c #FFE2C1",
"/. c #FEE0C3",
"(. c #FFE2C7",
/* pixels */
"                                                                                ",
"                                                                                ",
"                                                                                ",
"                                                                                ",
"                                                                                ",
"                                                                                ",
"                                                                                ",
"                                                                                ",
"                                                                                ",
"                                      B.                                        ",
"                              V.F.j.a.i.a.l.K.A.                                ",
"                            K.P.n.4.x S G ^ <.p.L.                              ",
"                          m.M.S.(.y.M } } ^ G h *.x.                            ",
"                        K.M.D./.h.%.f P I ) $.} j S z.                          ",
"                      l.w./.C.8.+ X , $ , 9 p _ $.x &.b.                        ",
"                      9.V r.2.o . : q t 9 : $ e _ } j e.                        ",
"                    v.o.M M O # 0 , P =.P , , $ t $.F _ v.                      ",
"                  !.f.x / R , , , , R :.R , , , , R / x f.                      ",
"                  A.9.x } s : 9 , , U =.U , , 9 : s } x 9.                      ",
"                  Y.5.V } p : 9 , , U =.U , , 9 : p } V 5.                      ",
"                  R.5.V } s : 9 , , R =.U , , 9 : s } V 5.                      ",
"                  Q.u.x } f : 9 , , R :.R , , 9 : f } x u.                      ",
"                  W.l.V G _ 9 : , , R >.R , , : 9 _ G V l.                      ",
"                    P.3.x $.I : , 9 u R u 9 , : I $.x 3.P.                      ",
"                    ~.g.V ^ $.N , : : : : : , N $.^ V g.                        ",
"                      T.r.j G $.Q s r e r s Q $.G j r.                          ",
"                      E.U.q.@ x / } _ _ _ } / x @ q.                            ",
"                            f.o.x x x F x x x o.f.                              ",
"                              K.a.5.<.,.<.5.a.                                  ",
"                                                                                ",
"                                                                                ",
"                                                                                ",
"                                                                                ",
"                                                                                ",
"                                                                                ",
"                                                                                ",
"                                                                                ",
"                                                                                ",
"                                                                                ",
"                                                                                "
};
