/* XPM */
static char *s17XJITrqGV_png[] = {
/* columns rows colors chars-per-pixel */
"40 40 181 2 ",
"   c #000000",
".  c #080707",
"X  c #0A0C0B",
"o  c #020A09",
"O  c #13100F",
"+  c #0E0E10",
"@  c #0D1213",
"#  c #131313",
"$  c #15181A",
"%  c #1C1C1C",
"&  c #211D1C",
"*  c #281D1C",
"=  c #341F1E",
"-  c #2B201C",
";  c #1E2222",
":  c #292D2D",
">  c #272827",
",  c #3A2726",
"<  c #30302F",
"1  c #3C332E",
"2  c #2D3232",
"3  c #323231",
"4  c #3A3837",
"5  c #3C3C3B",
"6  c #4A1E1C",
"7  c #44201E",
"8  c #49302F",
"9  c #583C2D",
"0  c #453936",
"q  c #573C39",
"w  c #4B2C26",
"e  c #6C3C3A",
"r  c #603B3A",
"t  c #723937",
"y  c #4E443A",
"u  c #5E4434",
"i  c #5A463D",
"p  c #624534",
"a  c #654B3B",
"s  c #6C4D3C",
"d  c #674937",
"f  c #75453B",
"g  c #6E513E",
"h  c #71513E",
"j  c #3D4141",
"k  c #424241",
"l  c #4A4947",
"z  c #484848",
"x  c #574E46",
"c  c #5F5444",
"v  c #565142",
"b  c #624C43",
"n  c #6D4944",
"m  c #764E44",
"M  c #7C4D43",
"N  c #655246",
"B  c #725541",
"V  c #765B44",
"C  c #7C5E42",
"Z  c #7D5848",
"A  c #A53C3B",
"S  c #B63A39",
"D  c #D8272B",
"F  c #D72B2F",
"G  c #DA2A2E",
"H  c #D72227",
"J  c #D72E31",
"K  c #D92E31",
"L  c #DB3334",
"P  c #D53C3D",
"I  c #D93C3B",
"U  c #E1262A",
"Y  c #E22D30",
"T  c #E23335",
"R  c #E23738",
"E  c #E33C3A",
"W  c #834B3F",
"Q  c #DC453D",
"!  c #824F44",
"~  c #85564B",
"^  c #865642",
"/  c #945445",
"(  c #9E5D47",
")  c #9C5C4D",
"_  c #985749",
"`  c #A04140",
"'  c #BC4343",
"]  c #AC5C4B",
"[  c #A65C47",
"{  c #83654E",
"}  c #9E664E",
"|  c #8B6B53",
" . c #9C6954",
".. c #8F765C",
"X. c #94765C",
"o. c #AA6253",
"O. c #B16D57",
"+. c #A47A5E",
"@. c #9B7D62",
"#. c #AF7766",
"$. c #C04343",
"%. c #DD5043",
"&. c #DF514F",
"*. c #DE5B4A",
"=. c #DF5151",
"-. c #E05857",
";. c #DD644E",
":. c #DF694E",
">. c #C96D57",
",. c #DC6E54",
"<. c #D2735D",
"1. c #E16D54",
"2. c #EB6F57",
"3. c #E16650",
"4. c #E37156",
"5. c #EC7357",
"6. c #E3755A",
"7. c #EB7459",
"8. c #E37C5B",
"9. c #EB7C5E",
"0. c #F3775C",
"q. c #E57C60",
"w. c #9F907B",
"e. c #AB8D6E",
"r. c #A28366",
"t. c #B39574",
"y. c #B98567",
"u. c #E78364",
"i. c #E98B62",
"p. c #EA8868",
"a. c #E89F66",
"s. c #EA9272",
"d. c #F39A77",
"f. c #D8A96D",
"g. c #C0A27F",
"h. c #E9AF64",
"j. c #F4AD68",
"k. c #F9BD67",
"l. c #F9A57F",
"z. c #FECD6F",
"x. c #FDCF7D",
"c. c #FAC273",
"v. c #938784",
"b. c #AA9980",
"n. c #BDA688",
"m. c #CBAD87",
"M. c #D3B68F",
"N. c #D7B890",
"B. c #D9BE99",
"V. c #FBB189",
"C. c #F9BC93",
"Z. c #C5BEBB",
"A. c #FCABA7",
"S. c #ECBCAF",
"D. c #D3C19E",
"F. c #FED585",
"G. c #E6C79C",
"H. c #FEC59A",
"J. c #FFC196",
"K. c #FFDC99",
"L. c #FED895",
"P. c #ECCEA1",
"I. c #EDD2A6",
"U. c #FCD4A6",
"Y. c #FFDCA3",
"T. c #FCD7A9",
"R. c #FDDDAD",
"E. c #F5D8AC",
"W. c #F4C6B9",
"Q. c #FEDFB0",
"!. c #FFE0AE",
"~. c #FFE1A5",
"^. c #FFE2B2",
"/. c #FFE9B7",
"(. c #FFEBB9",
"). c #F6CFC8",
"_. c #FFF8C2",
"`. c #EFEEEC",
"'. c #F9E5E1",
"]. c #FCF7F6",
"[. c #FFFEFE",
/* pixels */
"                                                                                ",
"                                                                                ",
"                                                                                ",
"                                  X = e e e r * o                               ",
"                              % t S I L R R L P A q o                           ",
"                          o 8 $.T Y F K J J K F Y L ` &                         ",
"                          n I G J J K K K K K K J F Y ' &                       ",
"                        , I F J K K K K K K K K K K J U S O                     ",
"                      X ' G J K K K K K K K K K K L D I A.v.                    ",
"                      f T J K K K K K K K K K K L D &.'.[.].4                   ",
"                    ; ' G K K K K K K K K K K K K G ).[.].[.v.                  ",
"                    , I F K K K K K K K K K K L D =.].[.].[.Z.                  ",
"                    7 R F K K K K K K K K K K K H -.[.[.[.[.`.%                 ",
"                    6 R J K K K K F F F K L L I L -.).W.W.W.S.b X               ",
"                    6 R F F K L I Q %.*.;.3.3.1.4.4.1.1.1.:.:.6.>.m             ",
"                    6 E I %.*.3.1.6.6.6.6.4.1.1.1.1.3.3.3.7.0.7.0.<..           ",
"                    w 0.4.7.7.7.1.;.,.,.,.6.q.u.u.p.s.s.d.O.W ! Z 8             ",
"                    &  .[ [ ( / } y. .f +.T.T.T.R.^.^.^._.v                     ",
"                      i a a u ..P./.P.V M./.Q./.Q.G.^.R./.c   .                 ",
"                    . a h s B P./.R.R.B.R.R.Q.R.M.g m.^./.c                     ",
"                    . N d u Z E.^.R.^.^.^.R./.N.d 9 e././.y                     ",
"                      y | { @.E.^.Q.^.R.^.^.^.R.e.@.P.^.E.5                     ",
"                      % I.^.^.^.^.^.^.^.!.^.^.^.^.^.^.R.R.B.l                   ",
"                        w.(.R.^.^.^.^.^.^.^.^.R.^././././._.b.                  ",
"                        # D./.R.^.^.^.^.^.^.^./.G.t.X...r.n.x                   ",
"                        $ #.H.^.^.!.!.^.R.^.^.t.g p p p p b +                   ",
"                        ~ 2.i.L.^.^.^.^.^./.g.p s g s s s B 1                   ",
"                      - 6.7.k.z.x.L.Y.R.T.U.| u a a a a a h x                   ",
"                      ~ 2.a.K.Y.K.x.z.c.u.8.>.( ^ C C V B b >                   ",
"                      o.u.U.^.^.^.Q.F.k.4.1.4.7.4.8.a.h.f.>                     ",
"                  $ % ] V./.R.!.!.^.~.j.1.4.4.4.4.1.1.7.9.0 $ .                 ",
"                % z 5 ] H./.R.R.R.Q.!.i.3.4.4.4.4.4.4.1.1.n j 4 .               ",
"              # k 3 2 [ l./././.^./.C.1.1.1.1.1.1.1.1.,.7.s : 5 >               ",
"              > k 3 2 M 5.d.C.H.J.l.9.5.7.7.7.7.7.5.7.7.,.q 2 4 3               ",
"                5 4 < 3 m / / ) ) _ ) ) ) ) ) ) ) _ / _ i 2 3 k %               ",
"                . j k 3 : : 2 2                 @ 5 : 2 : 4 z %                 ",
"                  . > k k 5 l %                   0 k 5 z > #                   ",
"                      . % 5 %                     X 3 % #                       ",
"                                                                                ",
"                                                                                "
};
