/* XPM */
static char *s44vjNndKuN_png[] = {
/* columns rows colors chars-per-pixel */
"40 40 157 2 ",
"   c None",
".  c black",
"X  c #00532A",
"o  c #015738",
"O  c #005838",
"+  c #0A5E40",
"@  c #0B6144",
"#  c #0B6446",
"$  c #0C6648",
"%  c #006E49",
"&  c #006E4A",
"*  c #016F4A",
"=  c #106649",
"-  c #106749",
";  c #10684B",
":  c #12694B",
">  c #106A4C",
",  c #116A4C",
"<  c #116A4D",
"1  c #146E4F",
"2  c #067145",
"3  c #047247",
"4  c #04714D",
"5  c #07704D",
"6  c #07714E",
"7  c #136F51",
"8  c #0B7451",
"9  c #0A7551",
"0  c #0B7551",
"q  c #097E57",
"w  c #087F58",
"e  c #177052",
"r  c #167152",
"t  c #187052",
"y  c #187053",
"u  c #187153",
"i  c #167B59",
"p  c #197858",
"a  c #1A7F5E",
"s  c #098059",
"d  c #098159",
"f  c #0C835B",
"g  c #0B845D",
"h  c #118660",
"j  c #138760",
"k  c #1A8160",
"l  c #1C8260",
"z  c #1A8563",
"x  c #118A63",
"c  c #158862",
"v  c #0E9A6D",
"b  c #11976B",
"n  c #11986C",
"m  c #109A6D",
"M  c #228061",
"N  c #208363",
"B  c #238463",
"V  c #278466",
"C  c #268566",
"Z  c #2C9D78",
"A  c #18A677",
"S  c #19A677",
"D  c #17A879",
"F  c #16A979",
"G  c #16A97A",
"H  c #16AA7A",
"J  c #16AB7B",
"K  c #16AC7B",
"L  c #16AC7C",
"P  c #17AD7C",
"I  c #16AF7C",
"U  c #17AF7D",
"Y  c #16AF7E",
"T  c #17AF7E",
"R  c #18A97A",
"E  c #19AA7B",
"W  c #1DA97A",
"Q  c #13B27E",
"!  c #16B07E",
"~  c #17B07F",
"^  c #14B27F",
"/  c #22A476",
"(  c #23A47B",
")  c #27A478",
"_  c #27A67A",
"`  c #23A57C",
"'  c #20AB7E",
"]  c #2AA87C",
"[  c #568E6D",
"{  c #16B581",
"}  c #16B684",
"|  c #16B784",
" . c #18B381",
".. c #18B683",
"X. c #16B884",
"o. c #17B984",
"O. c #2DA681",
"+. c #22AF82",
"@. c #2BAA82",
"#. c #2BAB82",
"$. c #2DAD84",
"%. c #2FB288",
"&. c #2FB388",
"*. c #31B38A",
"=. c #34B58B",
"-. c #31B98D",
";. c #33B88D",
":. c #31BB8E",
">. c #32BB90",
",. c #35BE90",
"<. c #35BF90",
"1. c #37BF92",
"2. c #3DBF98",
"3. c #54A180",
"4. c #69A08D",
"5. c #65BE9C",
"6. c #6CB5A5",
"7. c #7DB7B9",
"8. c #37C092",
"9. c #37C093",
"0. c #37C193",
"q. c #30C594",
"w. c #38C294",
"e. c #39C596",
"r. c #39C799",
"t. c #3AC89A",
"y. c #3DCA9B",
"u. c #3CCB9C",
"i. c #3FD1A2",
"p. c #40C79F",
"a. c #55CB9D",
"s. c #55CC9E",
"d. c #51CCA2",
"f. c #5BD5A7",
"g. c #6ED0AC",
"h. c #6ED1AD",
"j. c #72CBB7",
"k. c #77CDBB",
"l. c #78CDBB",
"z. c #70D5B0",
"x. c #72D5B0",
"c. c #72D5B1",
"v. c #71D6B2",
"b. c #78DEBB",
"n. c #7CD2C0",
"m. c #8CD1C3",
"M. c #A2DCD3",
"N. c #ADDCD6",
"B. c #ADDCD7",
"V. c #B0DDD8",
"C. c #B3DDD9",
"Z. c #B4DEDB",
"A. c #96E0C7",
"S. c #98E0C8",
"D. c #9DE2C9",
"F. c #9DE2CB",
"G. c #A3E4CE",
/* pixels */
"    H H H H H H                                                   H H H H H H   ",
"  H H H H H H H                                                   H H H H H H H ",
"  H H H H H H H                                                   H H H H H H H ",
"  H H H                                                                   H H H ",
"  H H H                                                                   H H H ",
"  H H H                                                                   H H H ",
"      H                                                                   H H H ",
"                                                                                ",
"                                                                                ",
"                                                                                ",
"                                                                                ",
"                              M.Z.N.N.C.C.m.j.k.l.n.6.4.7.                      ",
"                          X / b.G.S.A.D.D.d.q.r.t.i.] X [                       ",
"                          ) p.z i l l l k M V V M B 2.) 3.                      ",
"                        x.u.a O 6 & & & & 6 6 6 8 o p y.x.                      ",
"                        x.w.= h ;.S ! ! ! ! Q H >.h = w.x.                      ",
"                        h.0.e g ' S L L L L L E +.f e 0.h.                      ",
"                        h.0.t s | L H H H H H H | s t 0.h.                      ",
"                          0.e s ..H H H H H H H ..s e 0.h.                      ",
"                          0.e s ..H H H H H H H ..s e 0.h.                      ",
"                          0.e s ..H H H H H H H ..s e 0.h.                      ",
"                          0.e s X.L H H H H H K X.s e 0.h.                      ",
"                          0.t w L H H H H H H H L q t 0.h.                      ",
"                          1.1 x =.W {  . . .{ E *.c 7 1.h.                      ",
"                          e., 8 ` m v m m m v b ( 8 : e.x.                      ",
"                          1.O.@ # , : : : : : , $ + Z 1.5.                      ",
"                          3 ;.%.#.$.$.$.$.$.$.$.#.%.;.3                         ",
"                                            a.a.s.f.                            ",
"                                                                                ",
"                                                                                ",
"                                                                                ",
"  H H H                                                                   H H H ",
". H H H                                                                   H H H ",
". H H H                                                                   H H H ",
". H H H                                                                   H H H ",
". H H H H H H H                                                   H H H H H H H ",
". H H H H H H H                                                   H H H H H H H ",
"  . H H H H H H                                                   H H H H H H   ",
"    . . . . . .                                                   . . . . . .   ",
"                                                                                "
};
