/* XPM */
static char *s17GSXLT6Ym_png[] = {
/* columns rows colors chars-per-pixel */
"40 41 182 2 ",
"   c #000000",
".  c #050709",
"X  c #030B0B",
"o  c #0A0B0B",
"O  c #170E0D",
"+  c #17100E",
"@  c #1F120F",
"#  c #0D1313",
"$  c #141515",
"%  c #1D1C1B",
"&  c #1A1816",
"*  c #212323",
"=  c #2C2423",
"-  c #2C2D2D",
";  c #342927",
":  c #322A27",
">  c #30302E",
",  c #2C3231",
"<  c #343433",
"1  c #3A3837",
"2  c #3B3B3A",
"3  c #383535",
"4  c #4C2E2D",
"5  c #473734",
"6  c #553433",
"7  c #553F3A",
"8  c #703B39",
"9  c #6A3735",
"0  c #4E493A",
"q  c #43403B",
"w  c #57413B",
"e  c #524939",
"r  c #634635",
"t  c #654837",
"y  c #6D403F",
"u  c #664C3A",
"i  c #6B4D3B",
"p  c #7F413D",
"a  c #794E3C",
"s  c #7C533F",
"d  c #484747",
"f  c #474644",
"g  c #554C45",
"h  c #5F5344",
"j  c #5A554B",
"k  c #5F5950",
"l  c #6E4140",
"z  c #714C42",
"x  c #64584A",
"c  c #7E5340",
"v  c #7B5E48",
"b  c #775A45",
"n  c #6B645C",
"m  c #7F6856",
"M  c #736652",
"N  c #796D60",
"B  c #93312E",
"V  c #8E3837",
"C  c #833837",
"Z  c #933D3C",
"A  c #AF3F3F",
"S  c #B83C3A",
"D  c #D62027",
"F  c #D72B2E",
"G  c #DB2B2E",
"H  c #D7252C",
"J  c #D62E31",
"K  c #D92E31",
"L  c #C03734",
"P  c #CD3332",
"I  c #CC3B3C",
"U  c #DB3334",
"Y  c #DD3738",
"T  c #D33D3D",
"R  c #E12C2F",
"E  c #E42E31",
"W  c #E43234",
"Q  c #E03739",
"!  c #8C4639",
"~  c #864839",
"^  c #DC453D",
"/  c #914A4A",
"(  c #89594D",
")  c #9A5445",
"_  c #874644",
"`  c #B74140",
"'  c #82644E",
"]  c #8C7344",
"[  c #86754F",
"{  c #917648",
"}  c #93794C",
"|  c #856D5B",
" . c #8F7359",
".. c #8B7756",
"X. c #9E7359",
"o. c #967A5E",
"O. c #AB7158",
"+. c #C14141",
"@. c #DE4E44",
"#. c #D64241",
"$. c #C15B4A",
"%. c #DF5346",
"&. c #DE5749",
"*. c #DE5C4A",
"=. c #E14B41",
"-. c #E05147",
";. c #C76B54",
":. c #CA6A51",
">. c #CD6E59",
",. c #DD6D54",
"<. c #DB6750",
"1. c #DD725A",
"2. c #E16B53",
"3. c #E26F58",
"4. c #E56951",
"5. c #E37156",
"6. c #E3755A",
"7. c #EA7459",
"8. c #E87156",
"9. c #C27662",
"0. c #8D8370",
"q. c #948673",
"w. c #AB8F70",
"e. c #A99378",
"r. c #BC9F7E",
"t. c #A7886A",
"y. c #E8845A",
"u. c #ED925C",
"i. c #E98768",
"p. c #E78E65",
"a. c #ED9867",
"s. c #EA9574",
"d. c #ED9A76",
"f. c #EA9F7D",
"g. c #F29974",
"h. c #DAA17E",
"j. c #F2A661",
"k. c #F9BA69",
"l. c #F6B368",
"z. c #F1AC77",
"x. c #FCB672",
"c. c #FFC56A",
"v. c #FCCF77",
"b. c #FAC378",
"n. c #FFD479",
"m. c #FFDA7B",
"M. c #AA9A81",
"N. c #CBAC87",
"B. c #C6B18F",
"V. c #DDB48B",
"C. c #C8B290",
"Z. c #D9BE94",
"A. c #D4BA93",
"S. c #F2A481",
"D. c #F7AB88",
"F. c #F4AC85",
"G. c #FAB18A",
"H. c #DCC297",
"J. c #D9C398",
"K. c #FED282",
"L. c #E0C497",
"P. c #E3C799",
"I. c #FACA9E",
"U. c #FFDB92",
"Y. c #FFDC9C",
"T. c #F8D293",
"R. c #FFE19D",
"E. c #E7CDA0",
"W. c #E8CEA1",
"Q. c #F5D6A7",
"!. c #F4DAAC",
"~. c #FDDDAD",
"^. c #FDD8A4",
"/. c #FEDFB3",
"(. c #F6DEB2",
"). c #FFE8A2",
"_. c #FFE1AF",
"`. c #FFE2A4",
"'. c #FFE3B3",
"]. c #FFE7B8",
"[. c #FFEAB9",
"{. c #FFE9B5",
/* pixels */
"                                                                                ",
"                                                                                ",
"                                                                                ",
"                              = y C B B B C l ; .                               ",
"                          = Z I W W W W W W W T Z ;                             ",
"                      # 9 T E F J J J J J J J F E T 8 X                         ",
"                    # / Q F J K K K K K K K K K J F W C #                       ",
"                    p W F K K K K K K K K K K K K U F W _                       ",
"                  4 Y F K K K K K K K K K K K K K K K F Y 6                     ",
"                o A R J K K K K K K K K K K K K K K K J R ` #                   ",
"                4 Q F K K K K K K K K K K K K K K K K K F Y 6                   ",
"              . V E J K K K K K K K K K K K K K K K K K J E Z .                 ",
"              o S G K K K K K K K K L S L K K K K K K K K G +.$                 ",
"              = I G K K K K K K P ~ u u u ~ P K J K F K K G I +                 ",
"              5 #.U U U U U U U ! u u u u u ! U U U U U U U T @                 ",
"              5 3.4.4.4.4.<.4.<.c u i u i u s <.4.<.4.4.4.4.,.@                 ",
"              5 6.3.5.5.5.5.5.5.:.:.:.:.:.:.:.5.5.5.5.5.5.5.1.@                 ",
"              * 9.5.,.,.,.,.,.,.5.5.5.5.5.5.5.,.,.,.,.,.,.7.9.$                 ",
"              g A.V.X.a ( c c c c s s s s s c c c c c a X.V.A.j                 ",
"              e.L.J. .r u u u u u u u u u u u u u u u r  .J.H.M..               ",
"              q.P.Z.o.t i u u i u u i i i i i i u u i t o.Z.L.M..               ",
"              > B.E.w.t i u u u u u u u u u u u u u i r w.W.C.q                 ",
"                & g h i u i u u u u u u u u u u u i u i x g %                   ",
"                    $ m t t i i i i i i i i i i i t r | %                       ",
"                  .   n r.b r r t t t t t t t r r b r.j   .                     ",
"                    0 O.D.!.N.t. .' v v v '  .t.N.!.G.) 0                       ",
"                . ..n.c.5.S.[.[.~.Q.Q.Q.Q.Q.~.].[.F.4.7.x.[                     ",
"                e n.c.v.b.y.s.^.'.'.'.'.'.'./.`.z.4.5.,.u.m.h                   ",
"                ] n.T.~._.~.d.a.K.U.Y.Y.Y.U.K.l.5.3.5.4.p.m.}                   ",
"                ] R./.'.~.'.^.6.y.j.l.k.k.j.u.6.6.6.5.4.s.).{                   ",
"                x {.~._.~.'.I.%.&.3.3.5.5.3.&.@.@.%.3.4.s.[.M                   ",
"                k [.~.'.~.[.S.D ^ 6.3.3.3.6.^ H F K 4.<.s.[.n                   ",
"                2 !.'.~.'.~.-.F *.5.3.8.5.5.*.U W =.7.4.g.(.-                   ",
"                  q.'.'.~.d.*.4.5.7.1.;.>.6.7.$.p i z ) f.0.                    ",
"                  # N h.i.,.6.5.1.( = o + 7 ( 2 , , , - g <                     ",
"                o 1 - 3 7 w w w g *       . < < < < < < < <                     ",
"                $ d > < , , , - < 2       1 1 < < < < < 1 -                     ",
"                  1 f 1 1 1 1 2 d %       $ f 1 1 1 1 1 f 1                     ",
"                    $ < < - 1 * o           o < 1 - < < $ .                     ",
"                                                                                ",
"                                                                                "
};
