/* XPM */
static char *s17oQpJSZ4v_png[] = {
/* columns rows colors chars-per-pixel */
"40 39 190 2 ",
"   c #000000",
".  c #020608",
"X  c #060B0B",
"o  c #0D0E11",
"O  c #041313",
"+  c #141414",
"@  c #1B1A1A",
"#  c #191816",
"$  c #271D1A",
"%  c #3A1A17",
"&  c #1E201F",
"*  c #222222",
"=  c #2B2625",
"-  c #2D2D2D",
";  c #312C2C",
":  c #3F2C2B",
">  c #2C3131",
",  c #273231",
"<  c #343534",
"1  c #383735",
"2  c #393837",
"3  c #353738",
"4  c #3A3A39",
"5  c #38332B",
"6  c #401B17",
"7  c #6A1F1D",
"8  c #5F2A29",
"9  c #593C2D",
"0  c #433C39",
"q  c #483934",
"w  c #5B3534",
"e  c #662E2C",
"r  c #78302E",
"t  c #623C3B",
"y  c #5E4233",
"u  c #53473D",
"i  c #634837",
"p  c #654B3A",
"a  c #6B4E3C",
"s  c #614333",
"d  c #7B483D",
"f  c #6F503E",
"g  c #74513E",
"h  c #7D533F",
"j  c #434343",
"k  c #4A4845",
"l  c #5D4740",
"z  c #5D554B",
"x  c #525047",
"c  c #784C42",
"v  c #635A4E",
"b  c #725541",
"n  c #645C51",
"m  c #786B4F",
"M  c #6E625A",
"N  c #70685A",
"B  c #766F63",
"V  c #893C39",
"C  c #963938",
"Z  c #A93736",
"A  c #BC3A3A",
"S  c #D61C21",
"D  c #D72326",
"F  c #D72629",
"G  c #D62B2F",
"H  c #D92B2E",
"J  c #D8272B",
"K  c #D62E31",
"L  c #D92E31",
"P  c #D93133",
"I  c #DF3738",
"U  c #D53A3B",
"Y  c #DA3C3A",
"T  c #D53937",
"R  c #E12B2E",
"E  c #E32E31",
"W  c #E33436",
"Q  c #E13638",
"!  c #E73838",
"~  c #864537",
"^  c #DC443B",
"/  c #D9493F",
"(  c #E8443D",
")  c #8B4341",
"_  c #954543",
"`  c #875642",
"'  c #995C49",
"]  c #9B5C46",
"[  c #9D5E50",
"{  c #A04241",
"}  c #BE4746",
"|  c #B34746",
" . c #A65D4A",
".. c #AA5D4B",
"X. c #82654D",
"o. c #886A52",
"O. c #867554",
"+. c #94755B",
"@. c #A76047",
"#. c #B9654E",
"$. c #A86457",
"%. c #967B60",
"&. c #C44242",
"*. c #DD4541",
"=. c #DE4945",
"-. c #DD524A",
";. c #DF5250",
":. c #E65B49",
">. c #C8684F",
",. c #C96950",
"<. c #DE6E55",
"1. c #D96A53",
"2. c #DB7459",
"3. c #DF7056",
"4. c #E0674C",
"5. c #E0684C",
"6. c #E26E55",
"7. c #E37156",
"8. c #EB7156",
"9. c #E27459",
"0. c #EB7358",
"q. c #E57C5E",
"w. c #EA7959",
"e. c #F0755A",
"r. c #E46E6A",
"t. c #E77D60",
"y. c #E5766A",
"u. c #E67674",
"i. c #A88A69",
"p. c #B08E6E",
"a. c #A5977C",
"s. c #B99A79",
"d. c #BFA07E",
"f. c #D08864",
"g. c #EA8466",
"h. c #C3A27E",
"j. c #D8A468",
"k. c #FAB266",
"l. c #FFCC6F",
"z. c #FFD06C",
"x. c #F8CA77",
"c. c #FFD979",
"v. c #E8C275",
"b. c #BBAA8A",
"n. c #E98383",
"m. c #EB938E",
"M. c #C9AB86",
"N. c #C4AC89",
"B. c #CCB38B",
"V. c #D6B38F",
"C. c #C6B193",
"Z. c #CDB795",
"A. c #D4BC93",
"S. c #DBBD94",
"D. c #D6BE9B",
"F. c #F1A782",
"G. c #FAB888",
"H. c #EDA896",
"J. c #EEA897",
"K. c #E5BC96",
"L. c #F2BD95",
"P. c #EFAAA6",
"I. c #F1B8A8",
"U. c #DCC399",
"Y. c #DCC195",
"T. c #F9D08A",
"R. c #E2C594",
"E. c #E3C59A",
"W. c #EACA9E",
"Q. c #E9CB99",
"!. c #F9C599",
"~. c #FFDF9D",
"^. c #EBCDA1",
"/. c #F8CDA1",
"(. c #F2D5A7",
"). c #FDD4A6",
"_. c #F4D6A9",
"`. c #FED7A8",
"'. c #F7D9AB",
"]. c #FDDDAD",
"[. c #FDDAA1",
"{. c #FFE4B3",
"}. c #FFE9B6",
"|. c #FFEBB9",
" X c #F8D7D2",
".X c #F9E0DC",
"XX c #FCEEEA",
"oX c #FDF6F2",
"OX c #FFFEFE",
"+X c #FDF8F4",
/* pixels */
"                                                                                ",
"                                                                                ",
"                              . @ $ % % % $ * .                                 ",
"                            : _ &.Y I Q I T &.) $                               ",
"                        * V T E H H H H H H H E T ) +                           ",
"                      = } E H K L L L L L L L K L E | =                         ",
"                    = } R K L L P P L L L P P L L K R | &                       ",
"                  X { E K L L P J D P P P D H P L L K E _ X                     ",
"                  w Q G L L L F ;.P. X.X XP.;.F L L L H I q                     ",
"                . Z E K L P F r.+XOXOXOXOXOXoXr.F P L K E C                     ",
"                : Y H L P H =.oXOXOXOXOXOXOXOXXX*.H L L H U =                   ",
"                8 W K L P D n.OXOXOXOXOXOXOXOXOXu.D P L L Q t                   ",
"                7 W G H L S m.OXOXOXOXOXOXOXOXOXn.S L H G W e                   ",
"              . C ! Y ^ *.^ y.I.H.H.H.H.H.H.J.I.y.^ *.^ Y ! r                   ",
"              . $.8.3.7.9.9.6.4.5.5.5.5.5.5.5.4.7.9.9.7.<.e.~                   ",
"              . [ 8.6.8.6.6.6.6.6.6.6.6.6.6.6.6.6.6.6.8.6.e.d                   ",
"                p g.2.>.2.t.q.q.q.q.q.q.q.q.q.q.q.t.2.,.2.g.l                   ",
"              * b.E.p.o./.`.`.].`.`.`.`.`.`.].`.).`.W.X.s.E.a.o                 ",
"              0 U.A.B.^.}.{.'.s.(.}.{.{.{.].s.(.|.{.}.W.B.A.U.k                 ",
"              ; D.S.W.{.].}.d.9 +.E.{.].}.M.9 +.E.}.].{.E.Y.Z.=                 ",
"                v Z.A.'.].}.V.f g E.}.{.}.S.b a S.}.{.'.A.N.z                   ",
"                  # - D.}.].{.E.^.}.(.^._.}.W.^.{.].}.C.* +                     ",
"                      N |.].{.|.{.^.Y.A.U.^.{.|.].].}.z                         ",
"                      ; K.}.].d.X.o.M.B.N.X.o.M.{.}.V.=                         ",
"                  o O.j.q.L.%.y p p a b a p i s p.L.6.f.m                       ",
"                  O.c.z.k.@.i f a a a a a a a a i #.6.w.l.m                     ",
"                1 v.l.T.~.i.y p p p p a p p p p i  .0.<.k.v.#                   ",
"                u x.[.{.{.'.h.' ` h g g g h ` ] #.<.7.7.G.x.$                   ",
"                5 Q.{.].].{.{.g.6.<.<.<.<.<.7.8.8.7.7.6.!.R.#                   ",
"                X D.{.].].{.).9.6.9.9.7.9.7.6.6.<.6.6.<.).b.                    ",
"                . C.}.].].}.F.6.7.-.Y Y / 1.9.8.0.0.0.6.`.a.                    ",
"                  n }.}.}.!.9.<.Y E Q Q E L :.1. .' ..<./.x                     ",
"                  . B K.G.w.8.( K r 6 % e A Z 0 > > > u M .                     ",
"                  < 3 q d c c V t O       = 0 > < < < > 3 +                     ",
"                  2 2 > > > > , 3 2       3 1 < < < < < 2 2                     ",
"                  * j 1 1 1 1 1 k #       $ j 1 1 1 1 2 j #                     ",
"                    # 2 1 < 2 - #           + 2 1 < 2 - X                       ",
"                                                                                ",
"                                                                                "
};
