/* XPM */
static char *s17kkgrX1Xz_png[] = {
/* columns rows colors chars-per-pixel */
"40 40 227 2 ",
"   c #18110E",
".  c #D79B7A",
"X  c #FBA773",
"o  c #FEA772",
"O  c #FEA672",
"+  c #FEA671",
"@  c #FBAB75",
"#  c #D7A37F",
"$  c #18120E",
"%  c #D99C79",
"&  c #F9A36D",
"*  c #F7955B",
"=  c #F58E4D",
"-  c #F48C4A",
";  c #F48C4B",
":  c #F7955A",
">  c #FAA46C",
",  c #D9A27C",
"<  c #FDA670",
"1  c #F49258",
"2  c #E57E3F",
"3  c #CB6934",
"4  c #C05F2F",
"5  c #C16030",
"6  c #F49157",
"7  c #FDA971",
"8  c #FEA166",
"9  c #EC8445",
"0  c #C56331",
"q  c #A14522",
"w  c #9F4320",
"e  c #A04321",
"r  c #A04322",
"t  c #C46330",
"y  c #EB8544",
"u  c #FEA067",
"i  c #FEA064",
"p  c #E67E3F",
"a  c #B35429",
"s  c #9F4321",
"d  c #A34723",
"f  c #A44723",
"g  c #FE9F64",
"h  c #FEA065",
"j  c #B55429",
"k  c #A34522",
"l  c #A54824",
"z  c #B5552A",
"x  c #A34523",
"c  c #A44724",
"v  c #B5562A",
"b  c #B45429",
"n  c #E57D3F",
"m  c #B25328",
"M  c #A04422",
"N  c #A34623",
"B  c #A34624",
"V  c #FEA167",
"C  c #E98242",
"Z  c #C05F2C",
"A  c #A24522",
"S  c #A14422",
"D  c #FEA872",
"F  c #F39256",
"G  c #DB7639",
"H  c #BF5E2C",
"J  c #B95829",
"K  c #BB5A2A",
"L  c #BB5A2B",
"P  c #FFAC79",
"I  c #FEA979",
"U  c #F3965E",
"Y  c #E8874D",
"T  c #E5834B",
"R  c #E5854C",
"E  c #E5854D",
"W  c #E7864E",
"Q  c #FC9B67",
"!  c #E9956B",
"~  c #F7A57C",
"^  c #F9A477",
"/  c #F9A376",
"(  c #F8A377",
")  c #F8A477",
"_  c #FBA578",
"`  c #F68855",
"'  c #B3532A",
"]  c #DA8256",
"[  c #F59E6F",
"{  c #F39D70",
"}  c #F39C6E",
"|  c #F59F70",
" . c #DF8A63",
".. c #F38957",
"X. c #9E3B14",
"o. c #C15F2B",
"O. c #E98545",
"+. c #E78346",
"@. c #E68245",
"#. c #EC8848",
"$. c #E68244",
"%. c #B6572C",
"&. c #F58B58",
"*. c #A5441D",
"=. c #C5632F",
"-. c #E98343",
";. c #E68042",
":. c #E58042",
">. c #EC8645",
",. c #E58041",
"<. c #B45328",
"1. c #A6441D",
"2. c #C86734",
"3. c #EE8A4A",
"4. c #EB8749",
"5. c #EB8748",
"6. c #EA8748",
"7. c #F18C4C",
"8. c #EB8648",
"9. c #BA5A2F",
"0. c #F58B59",
"q. c #C66532",
"w. c #EB8647",
"e. c #E88346",
"r. c #E68446",
"t. c #E78446",
"y. c #E68345",
"u. c #ED8949",
"i. c #E78246",
"p. c #B8592E",
"a. c #F68C59",
"s. c #AF5025",
"d. c #C06031",
"f. c #BF5F31",
"g. c #BF6031",
"h. c #BE5F31",
"j. c #C16232",
"k. c #AB4D27",
"l. c #A7441E",
"z. c #A2441F",
"x. c #A74A25",
"c. c #A84B25",
"v. c #A74B25",
"b. c #A04421",
"n. c #A74A24",
"m. c #A94B25",
"M. c #AA4D26",
"N. c #BF5E2E",
"B. c #DB793F",
"V. c #DA783F",
"C. c #DA773F",
"Z. c #DE7B41",
"A. c #D8763F",
"S. c #AC4F27",
"D. c #AC4E27",
"F. c #D3723C",
"G. c #DD7B41",
"H. c #D9773F",
"J. c #D9763F",
"K. c #CA6834",
"L. c #F18B4A",
"P. c #EE894A",
"I. c #EE8949",
"U. c #F48E4D",
"Y. c #ED8849",
"T. c #B0532A",
"R. c #B05329",
"E. c #E58245",
"W. c #F38F4D",
"Q. c #EF8A4A",
"!. c #EA8547",
"~. c #ED8848",
"^. c #E68346",
"/. c #AF522A",
"(. c #AF5229",
"). c #DF7D42",
"_. c #EC8849",
"`. c #E88446",
"'. c #A5431D",
"]. c #C76633",
"[. c #E88447",
"{. c #E07E43",
"}. c #E98447",
"|. c #F58C58",
" X c #A2411B",
".X c #C46230",
"XX c #EC8748",
"oX c #F28C4B",
"OX c #EB8649",
"+X c #E38144",
"@X c #F18C4B",
"#X c #FA9961",
"$X c #AD4E28",
"%X c #A74720",
"&X c #D06E39",
"*X c #D7753C",
"=X c #D5733B",
"-X c #D9763D",
";X c #D5723B",
":X c #AB4D25",
">X c #CF6E39",
",X c #D9773D",
"<X c #D5743B",
"1X c #D06E38",
"2X c #A7471F",
"3X c #FA9962",
"4X c #EB9A67",
"5X c #DD8251",
"6X c #A74A27",
"7X c #9D401D",
"8X c #A1441E",
"9X c #A1431E",
"0X c #A2431E",
"qX c #9E401D",
"wX c #9D401B",
"eX c #A74A26",
"rX c #EB9A68",
"tX c #1A110B",
"yX c #EA9C65",
"uX c #F29259",
"iX c #DA7541",
"pX c #D76F3E",
"aX c #D87140",
"sX c #D97140",
"dX c #DB7441",
"fX c #D8723F",
"gX c white",
/* pixels */
"  . X o o o o o o o o o o o o o o o o o o o o o o o o o o o o o o o o O + @ # $ ",
"% & * = - ; ; ; ; ; ; ; ; ; ; ; ; ; ; ; ; ; ; ; ; ; ; ; ; ; ; ; ; ; ; - = : > , ",
"< 1 2 3 4 5 5 5 5 5 5 5 5 5 5 5 5 5 5 5 5 5 5 5 5 5 5 5 5 5 5 5 5 5 5 4 3 2 6 7 ",
"8 9 0 q w e r r r r r r r r r r r r r r r r r r r r r r r r r r r r e w q t y u ",
"i p a s d f f f f f f f f f f f f f f f f f f f f f f f f f f f f f f d s a 2 g ",
"h p j k l l l l l l l l l l l l l l l l l l l l l l l l l l l l l l l l k j p h ",
"h p z x c l l l l l l l l l l l l l l l l l l l l l l l l l l l l l l c x z p h ",
"h p z x c l l l l l l l l l l l l l l l l l l l l l l l l l l l l l l c x z p h ",
"h p z x c l l l l l l l l l l l l l l l l l l l l l l l l l l l l l l c x z p h ",
"h p z x c l l l l l l l l l l l l l l l l l l l l l l l l l l l l l l c x z p h ",
"h p z x c l l l l l l l l l l l l l l l l l l l l l l l l l l l l l l c x z p h ",
"h p z x c l l l l l l l l l l l l l l l l l l l l l l l l l l l l l l c x z p h ",
"h p z x c l l l l l l l l l l l l l l l l l l l l l l l l l l l l l l c x z p h ",
"h p z x c l l l l l l l l l l l l l l l l l l l l l l l l l l l l l l c x z p h ",
"h p z x c l l l l l l l l l l l l l l l l l l l l l l l l l l l l l l c x z p h ",
"h p z x c l l l l l l l l l l l l l l l l l l l l l l l l l l l l l l c x z p h ",
"h p z x c l l l l l l l l l l l l l l l l l l l l l l l l l l l l l l c x z p h ",
"h p v x c l l l l l l l l l l l l l l l l l l l l l l l l l l l l l l c x v p h ",
"i 2 b x l l l l l l l l l l l l l l l l l l l l l l l l l l l l l l l l x b 2 i ",
"i n m M N B N N N N N N N N N N N N N N N N N N N N N N N N N N N N B N M m n i ",
"V C Z A S A A A A A A A A A A A A A A A A A A A A A A A A A A A A A A S A Z C V ",
"D F G H J K L L L L L L L L L L L L L K K L L L L L L L L L L L L L K J H G F D ",
"P I U Y T R E E E E E E E E E E E E E W W E E E E E E E E E E E E E R T Y U I P ",
"Q ! ~ ^ / ( ( ( ( ( ( ( ( ( ( ( ( ( ) _ _ ) ( ( ( ( ( ( ( ( ( ( ( ( ( / ^ ~ ! Q ",
"` ' ] [ { } } } } } } } } } } } } | }  . .} | } } } } } } } } } } } } { [ ] ' ` ",
"..X.o.O.+.@.@.@.@.@.@.@.@.@.@.@.@.#.$.%.%.$.#.@.@.@.@.@.@.@.@.@.@.@.@.+.O.o.X...",
"&.*.=.-.;.;.;.;.;.;.;.;.;.;.;.;.:.>.,.<.<.,.>.:.;.;.;.;.;.;.;.;.;.;.;.;.-.=.*.&.",
"&.1.2.3.4.5.5.5.5.4.4.4.5.5.5.5.6.7.8.9.9.8.7.6.5.5.5.5.4.4.4.5.5.5.5.4.3.2.1.&.",
"0.1.q.w.e.+.+.+.+.+.r.t.+.+.+.+.y.u.i.p.p.i.u.y.+.+.+.+.t.r.+.+.+.+.+.e.w.q.1.0.",
"a.1.s.d.f.f.g.f.g.h.h.f.g.g.g.g.h.j.f.k.k.f.j.h.g.g.g.g.f.h.h.g.f.g.f.f.d.s.1.a.",
"a.l.z.x.c.c.c.c.v.b.s n.m.c.c.c.c.x.v.M.M.v.x.c.c.c.c.m.n.s b.v.c.c.c.c.x.z.l.a.",
"&.1.N.B.V.C.C.Z.A.S.D.F.G.C.C.C.C.H.J.J.J.J.H.C.C.C.C.G.F.D.S.A.Z.C.C.V.B.N.1.&.",
"&.1.K.L.P.I.I.U.Y.T.R.E.W.Q.I.I.I.I.I.I.I.I.I.I.I.I.Q.W.E.R.T.Y.U.I.I.P.L.K.1.&.",
"&.1.q.!.+.+.+.~.^./.(.)._.`.+.+.+.+.+.+.+.+.+.+.+.+.`._.).(./.^.~.+.+.+.!.q.1.&.",
"&.1.q.!.+.+.+.~.^./.(.)._.`.+.+.+.+.+.+.+.+.+.+.+.+.`._.).(./.^.~.+.+.+.!.q.1.&.",
"&.'.].w.[.`.`.I.t./.(.{.Y.}.`.`.`.`.`.`.`.`.`.`.`.`.}.Y.{.(./.t.I.`.`.[.w.].'.&.",
"|. X.XP._.XXXXoXOXT.R.+X@X~.XXXXXXXXXXXXXXXXXXXXXXXX~.@X+XR.T.OXoXXXXX_.I..X X|.",
"#X$X%X&X*X=X=X-X;X:X:X>X,X<X=X=X=X=X=X=X=X=X=X=X=X=X<X,X>X:X:X;X-X=X=X*X1X2X$X3X",
"4X5X6X7X8X8X9Xz.0XqXqX9Xz.0X9X9X9X9X9X9X9X9X9X9X9X9X0Xz.9XqXqX0Xz.9X8X8XwXeX5XrX",
"tXyXuXiXpXaXsXaXaXdXdXfXaXsXsXsXsXsXsXsXsXsXsXsXsXsXsXaXfXdXdXaXaXsXaXpXiXuXyXtX"
};
