/* XPM */
static char *s179pa1i8Lg_png[] = {
/* columns rows colors chars-per-pixel */
"42 40 179 2 ",
"   c #000000",
".  c #000807",
"X  c #0A0A0A",
"o  c #070F0F",
"O  c #0D1212",
"+  c #141515",
"@  c #1B1B1A",
"#  c #191615",
"$  c #231D1C",
"%  c #2D211F",
"&  c #262320",
"*  c #2B2D2D",
"=  c #2A2725",
"-  c #3D2B26",
";  c #322C2B",
":  c #372523",
">  c #31312F",
",  c #2F3232",
"<  c #343434",
"1  c #393837",
"2  c #3B3C3B",
"3  c #393837",
"4  c #5A3D2E",
"5  c #433C34",
"6  c #4B3A37",
"7  c #4C3D39",
"8  c #4A3A36",
"9  c #573B34",
"0  c #562B2A",
"q  c #642E2D",
"w  c #783736",
"e  c #45413C",
"r  c #494035",
"t  c #56423E",
"y  c #5B4237",
"u  c #624535",
"i  c #61453A",
"p  c #654A39",
"a  c #6B4E3B",
"s  c #674937",
"d  c #764F3C",
"f  c #6E513E",
"g  c #73513E",
"h  c #3F4343",
"j  c #414140",
"k  c #4C4B4A",
"l  c #574540",
"z  c #5A5352",
"x  c #6A4942",
"c  c #7E4E43",
"v  c #6C5344",
"b  c #745743",
"n  c #755846",
"m  c #7C574A",
"M  c #7F604A",
"N  c #6B645B",
"B  c #766A5D",
"V  c #766554",
"C  c #962F2E",
"Z  c #97322F",
"A  c #993935",
"S  c #863736",
"D  c #B63F3E",
"F  c #D71F22",
"G  c #D8272A",
"H  c #DB2A2E",
"J  c #D72225",
"K  c #D72E31",
"L  c #D92E31",
"P  c #CF3D3E",
"I  c #DB3234",
"U  c #DB3B3B",
"Y  c #E02B2E",
"T  c #E42E32",
"R  c #E43134",
"E  c #DB443C",
"W  c #8A4342",
"Q  c #8A5949",
"!  c #9E5B4C",
"~  c #9B5E51",
"^  c #A44342",
"/  c #BC4442",
"(  c #B25F49",
")  c #836951",
"_  c #8F7258",
"`  c #977B56",
"'  c #B9624B",
"]  c #B07951",
"[  c #B26857",
"{  c #9D7F63",
"}  c #8A7C69",
"|  c #CD4343",
" . c #D34343",
".. c #DD4F43",
"X. c #DE5545",
"o. c #DE5949",
"O. c #DE5956",
"+. c #EC5648",
"@. c #C6634D",
"#. c #DF624E",
"$. c #CC6A51",
"%. c #D56B53",
"&. c #DB6D55",
"*. c #CB7B5F",
"=. c #D5725D",
"-. c #DD765D",
";. c #DC785D",
":. c #E26A4F",
">. c #E16C53",
",. c #E27156",
"<. c #EC7055",
"1. c #E3755B",
"2. c #E97459",
"3. c #E5785F",
"4. c #E97A5B",
"5. c #F4795D",
"6. c #DD7C61",
"7. c #E47960",
"8. c #E56D70",
"9. c #E57071",
"0. c #AC8953",
"q. c #9E8266",
"w. c #9F8E77",
"e. c #A28467",
"r. c #AA8B6D",
"t. c #AE8F70",
"y. c #E9895B",
"u. c #E48869",
"i. c #F08E60",
"p. c #E39D6C",
"a. c #E88A73",
"s. c #E28973",
"d. c #EA9377",
"f. c #F59E7A",
"g. c #C1A27F",
"h. c #EEA363",
"j. c #F5A763",
"k. c #F4B165",
"l. c #EAA07C",
"z. c #FECE6C",
"x. c #FDCF7C",
"c. c #FFD77F",
"v. c #99918E",
"b. c #EA9782",
"n. c #E99994",
"m. c #C4A582",
"M. c #CDAD87",
"N. c #CDB28C",
"B. c #D5B68F",
"V. c #DBBC94",
"C. c #F2A782",
"Z. c #F2AE86",
"A. c #F4B48B",
"S. c #F3B88F",
"D. c #F6BD93",
"F. c #C2B8B5",
"G. c #EEA5A1",
"H. c #DFC097",
"J. c #F9C88F",
"K. c #FED58D",
"L. c #FFD787",
"P. c #E2C39B",
"I. c #E7C99E",
"U. c #E9C99E",
"Y. c #F8C699",
"T. c #FED79B",
"R. c #EDD0A5",
"E. c #FED4A6",
"W. c #FDDEAE",
"Q. c #FADAA9",
"!. c #FEDFB0",
"~. c #FFE0AF",
"^. c #FFE2B2",
"/. c #FFE9B7",
"(. c #FFECBA",
"). c #D1CBC9",
"_. c #EADFDB",
"`. c #FFF1C1",
"'. c #FEFDFD",
/* pixels */
"                                                                                    ",
"                                                                                    ",
"                                    O + + + .                                       ",
"                              o : w ^ / / / A q $ .                                 ",
"                            % ^ U R Y H H H T R P W @                               ",
"                          0  .Y H K K L L L K K H T / 8                             ",
"                        0 U H K L L L L L L L L L K H  .:                           ",
"                      ; O.F K L L L L L L L L L L L K Y D +                         ",
"                    . F.'.n.L L L L L L L L L L L L L K R w                         ",
"                    z '.'.'.G.G L L L L L L L L L L L L H | ;                       ",
"                    v.'.'.'.'.O.G I L L L L L L L L L L L I x                       ",
"                  X ).'.'.'.'.9.J I L L L L L L L L L L K T S                       ",
"                  @ _.'.'.'.'.8.F L H H H L L L L L L L K R Z                       ",
"              @ 9 [ s.a.a.d.b.1.X.X...E E U I L L H H L K R Z                       ",
"            . [ 5.<.:.>.>.>.:.,.1.1.1.1.,.>.>.#.o...E I K T C                       ",
"              ~ -.=.-.1.,.>.>.>.>.>.>.>.>.2.2.2.2.2.2.>.#.+.A                       ",
"              o $ $ # x E.Y.D.S.A.Z.C.C.*.( ' ' @.$.%.%.&.1.Q                       ",
"                      5 (.^./.(././.^.(.N.y q.H.g.M a g d m =                       ",
"                  .   r /.W.Q.t.U./.W.W.^.r.U.(./.I.b p p v @                       ",
"                      5 /./.m.4 _ V.^.W.^.W.Q.W.W./.e.u a n $                       ",
"                      & Q./.B.f u M./.W.!.^.^.^.W./.e.4 u v $                       ",
"                    O N R.^.^.V.V.^.^.^.^.^.^.!.^.^.P.m.M.V                         ",
"                    B /.^././././.W.^.^.!.^.^.!.^.^././.`.e                         ",
"                    } /.I.V.H.R.^./.W.^.^.!.^.W.^.^.W./.w.                          ",
"                    + B b p a n { P./.W.!.^.^.^.~.W.^.P.*                           ",
"                    # v s a a p u f V./.W.W.~.^.^./.S.1.m                           ",
"                    7 g a a a a f u ) ^./.^.^.^.Q.L.k.,.3.-                         ",
"                    e n u i i p p a Q l.A.J.K.x.x.x.c.h.<.!                         ",
"                    . 3 ` 0.0.] ' $.,.>.>.k.z.K.W.^.^.T.4.=.&                       ",
"                      @ p.j.i.4.2.,.,.,.>.j.L.^.^.^.W./.S.-.%                       ",
"                  @ 2 t &.>.&.>.,.,.,.,.>.y.T.^.W.^.W.^.Q.6.7 2 @                   ",
"                + j , i ,.,.,.,.,.,.,.,.,.,.Y./.W.!.W./.Q.-.8 < j +                 ",
"                * 1 * y 2.,.,.,.>.>.>.>.>.>.u.Y.W.^.^.E.f.%.5 , 3 1                 ",
"                * 2 > 3 ! &.&.&.1.3.3.3.3.3.1.7.d.d.u.;.%.c , > 2 3                 ",
"                . 1 2 < < 7 7 l 7 - - - - - - - : 8 t 7 7 , < 2 1 .                 ",
"                  . 1 3 1 < * h O                 + h * < 1 j 1 .                   ",
"                      . 3 3 k 3                     < k e < +                       ",
"                            +                         + X                           ",
"                                                                                    ",
"                                                                                    "
};
